<?xml version="1.0" encoding="UTF-8" standalone="no"?>
<svg width="184px" height="68px" viewBox="0 0 184 68" version="1.1" xmlns="http://www.w3.org/2000/svg" xmlns:xlink="http://www.w3.org/1999/xlink" xmlns:sketch="http://www.bohemiancoding.com/sketch/ns">
    <!-- Generator: Sketch 3.3.2 (12043) - http://www.bohemiancoding.com/sketch -->
    <title>ubs_semibold_rgb_44_68x184</title>
    <desc>Created with Sketch.</desc>
    <defs></defs>
    <g id="Page-1" stroke="none" stroke-width="1" fill="none" fill-rule="evenodd" sketch:type="MSPage">
        <g id="ubs_semibold_rgb_44_68x184" sketch:type="MSArtboardGroup">
            <g id="Crest-+-UBS" sketch:type="MSLayerGroup" transform="translate(0.850000, 1.050000)">
                <path d="M105.373048,39.2951257 C105.373048,52.8150996 97.9821322,54.4374781 90.5911949,54.4374781 C77.8823994,54.4374781 75.1784134,47.9479203 75.1784134,38.6641971 L75.1784134,12.4804631 L70.4914621,12.4804631 L70.4914621,9.95670503 L88.2477084,9.95670503 L88.2477084,12.4804631 L83.2002576,12.4804631 L83.2002576,37.8980757 C83.2002576,46.8663346 85.5437223,51.327892 91.9882449,51.327892 C98.5679385,51.327892 101.767682,48.0831131 101.767682,38.7543329 L101.767682,12.4804631 L97.0356957,12.4804631 L97.0356957,9.95670503 L109.654355,9.95670503 L109.654355,12.4804631 L105.373026,12.4804631 L105.373026,39.2951257 L105.373048,39.2951257 Z M117.450893,51.4180278 L117.450893,12.4804631 L112.854099,12.4804631 L112.854099,9.95670503 L132.548275,9.95670503 C140.930641,9.95670503 145.076777,14.6886698 145.076777,20.2318999 C145.076777,26.1356732 139.713862,29.4705879 134.936775,30.4620379 C144.22052,31.318295 146.744213,37.2671253 146.744213,41.6385905 C146.744213,50.5617488 139.127969,53.9417641 131.646896,53.9417641 L112.538613,53.9417641 L112.538613,51.4180278 L117.450893,51.4180278 L117.450893,51.4180278 Z M137.054933,20.7276576 C137.054933,16.6266215 134.936797,12.4804631 130.294881,12.4804631 L125.292531,12.4804631 L125.292531,29.3804304 L129.754088,29.3804304 C134.666346,29.3804521 137.054933,25.2343155 137.054933,20.7276576 L137.054933,20.7276576 Z M138.632277,41.6386122 C138.632277,35.7799395 136.108497,31.8591097 130.204789,31.8591097 L125.292531,31.8591097 L125.292531,51.4180278 L129.258374,51.4180278 C135.522625,51.4180278 138.632277,47.7226135 138.632277,41.6386122 L138.632277,41.6386122 Z M166.393289,11.8945697 C161.75146,11.8945697 158.777044,14.6436563 158.777044,19.4207433 C158.777044,23.7471079 163.463996,25.8202089 168.015732,27.3524517 C170.719719,28.2988664 174.144791,29.5607237 176.488255,31.8140744 C179.057049,34.2476314 180.454121,37.4924539 180.363963,41.5935117 C180.183757,49.2548563 174.820755,54.4374999 165.356803,54.4826004 C161.796495,54.4826004 156.253286,53.6713785 152.918372,51.7335139 L152.557872,40.1964399 L155.351994,40.1964399 C155.577323,47.9479421 159.227702,52.0039429 165.627189,52.0039429 C170.764776,52.0039429 173.603998,48.5788707 173.603998,43.3511484 C173.603998,38.8444904 169.863483,36.9065822 164.185082,35.0138181 C162.337309,34.3828677 158.68693,33.0308529 156.118137,30.5070949 C153.819773,28.2087307 152.738166,25.3244731 152.738166,22.2599221 C152.738166,13.2916633 159.137588,9.41593394 167.069361,9.41593394 C170.224004,9.41593394 174.956034,10.5426202 177.705056,12.11992 L177.975485,22.1247294 L175.181363,22.1247294 C174.595426,15.0041558 171.48584,11.8945697 166.393289,11.8945697 L166.393289,11.8945697 Z" id="Shape" fill="#E60000" sketch:type="MSShapeGroup"></path>
                <path d="M48.5482232,18.8579661 L47.3734762,19.8367914 L48.6133926,23.8825837 L44.8939045,21.8596984 L43.653988,22.838589 L47.7649279,25.057026 L43.393158,28.5806577 L42.218411,27.0147636 L43.7846968,25.7747819 L42.6099498,24.4044831 L41.0440557,25.6443995 L39.8696134,24.1434137 L41.4355075,22.9037366 L40.2610651,21.4029902 L32.2349547,28.0587365 L39.8695916,34.1923441 L41.2395857,32.4957412 C42.218411,32.5612153 42.9362321,33.2789712 43.3277057,34.1923441 L41.9576463,35.8892517 L42.8057845,36.5412287 C44.6979827,34.8449305 47.1778809,33.7356576 49.7226003,33.7356576 C55.0732172,33.7356576 59.2494571,38.107754 59.2494571,43.4580445 C59.2494571,45.2198603 58.7927707,47.1126897 57.8139454,48.6785838 L59.2494571,49.7877914 C59.1842224,50.8321561 58.2053972,51.9413855 57.2265719,52.2021502 L55.8562078,51.0929426 C53.9640096,52.9202326 51.4844379,53.8985137 48.8741573,53.8985137 C43.5235404,53.8985137 39.3473657,49.6574309 39.3473657,44.241601 C39.3473657,42.4798504 39.8695699,40.6524951 40.6524951,39.1515093 L39.8695699,38.4340581 L38.4992058,40.2607386 C37.5203805,40.1303563 36.6719158,39.4777481 36.4111511,38.4340581 L37.7814499,36.8026246 L31.3212988,31.4517029 L31.3212988,39.9344345 L33.4745664,39.999974 C33.7356358,40.3262781 33.9315576,40.7828992 33.9315576,41.3051034 C33.9315576,41.7617898 33.7356358,42.2839286 33.5397794,42.6750974 L31.3212771,42.6750974 L31.3212771,43.7194621 C36.0196123,44.5024527 39.9346957,48.4827056 39.9346957,53.3114667 C39.9346957,58.3360842 36.0848252,62.3163371 31.3212771,63.0993276 L31.3212771,64.7962353 C30.8645906,65.057 30.2772171,65.2529217 29.755383,65.2529217 C29.1680095,65.2529217 28.5154012,65.057 27.9932624,64.7962353 L27.9932624,63.0993276 C23.230019,62.3163371 19.5105308,58.3360842 19.5105308,53.3114667 C19.5105308,48.4827056 23.230019,44.5024309 27.9932624,43.7843703 L27.9932624,42.6750974 L25.7747819,42.6750974 C25.5137125,42.2839504 25.3833301,41.7617898 25.3833301,41.3051034 C25.3833301,40.7828992 25.5137125,40.3262781 25.7747819,39.9344345 L27.9932842,39.9344345 L27.9932842,31.4517029 L21.4682249,36.8026246 L22.9037366,38.4340581 C22.5774325,39.4777481 21.7289896,40.1303345 20.750469,40.2607386 L19.3801049,38.4340581 L18.531662,39.1515093 C19.4453396,40.6524951 19.9020261,42.4798504 19.9020261,44.241601 C19.9020261,49.6574309 15.7258515,53.8985137 10.3752345,53.8985137 C7.83018867,53.8985137 5.28538225,52.9202326 3.45841876,51.0929426 L2.02290703,52.2021502 C1.10922939,51.9414073 0.130382339,50.8321997 0,49.787835 L1.3702988,48.6786273 C0.522160591,47.1127115 0,45.2199038 0,43.4580662 C0,38.107754 4.17617463,33.7356794 9.52679158,33.7356794 C12.1370504,33.7356794 14.6165785,34.8449523 16.5087767,36.5412505 L17.292072,35.9541817 L15.9217079,34.1923658 C16.2480121,33.2789929 17.0961503,32.6264718 18.0750408,32.4957629 L19.4453396,34.1923658 L27.079933,28.0587583 L19.0538879,21.403012 L17.8791408,22.9037584 L19.4453614,24.1434354 L18.2706144,25.6444213 L16.7047203,24.4045048 L15.530278,25.7748036 L17.0310244,27.0147854 L15.8565821,28.5806795 L11.5497204,25.0570478 L15.5955127,22.8386108 L14.4207656,21.8597202 L10.7015822,23.8826054 L11.9411939,19.8368132 L10.7667516,18.8579879 L9.39645277,23.2952319 L5.02431283,19.7716438 L6.19905989,18.336132 L7.69974103,19.5757437 L8.93972278,18.140232 L7.37350221,16.7699332 L8.54818397,15.3995691 L10.1141433,16.5743162 L11.2233727,15.2039521 L7.83018867,12.5285239 C8.15642748,11.4192945 8.87448808,10.5056386 9.91824333,9.85309569 L27.9932842,24.6003613 L27.9932842,14.7470262 L26.1662989,14.7470262 L26.1662989,16.6394856 L24.3392484,16.6394856 L24.3392484,14.7470262 L22.4467454,14.7470262 L22.4467454,16.6394856 L20.5545473,16.6394856 L20.5545473,11.0930122 L24.8611695,12.9199974 L24.8611695,11.3541033 L20.8808514,9.72266982 L24.8611695,8.15644925 L24.8611695,6.65576811 L20.5545473,8.35237102 L20.5545473,2.74066289 L22.4467454,2.74066289 L22.4467454,4.76354816 L24.3392484,4.76354816 L24.3392484,2.74066289 L26.1662989,2.74066289 L26.1662989,4.76354816 L27.9932842,4.76354816 L27.9932842,0.326238815 C28.5154448,0.130404106 29.1028183,0 29.6898871,0 C30.2120912,0 30.7991818,0.130404106 31.3213206,0.326238815 L31.3213206,24.6003395 L49.3963614,9.85307393 C50.3751867,10.5056169 51.0929644,11.4192945 51.4844161,12.5285021 L48.0260191,15.2039303 L49.2004614,16.5742944 L50.7666602,15.3995474 L51.9411026,16.7699115 L50.3752085,18.1402102 L51.5496508,19.575722 L53.1158714,18.3361103 L54.2903137,19.771622 L49.9182173,23.2951884 L48.5482232,18.8579661 L48.5482232,18.8579661 Z M11.6148462,45.5461862 C11.6148462,47.1127115 12.7895933,48.0915368 14.1599574,48.2219191 L11.8759157,49.983735 C10.3099998,49.3960567 8.87448808,47.5038585 8.87448808,45.872425 C8.87448808,45.3508957 9.00487042,45.0245915 9.13525276,44.6328133 C8.93970102,44.6328133 8.80901395,44.6982874 8.67863161,44.6982874 C6.59051164,44.6982874 4.82869579,42.7406151 4.43724404,40.7174251 L6.78643342,38.8906793 C6.72089398,39.1515093 6.72089398,39.3473657 6.72089398,39.5432875 C6.72089398,40.8484169 7.96087574,42.0225545 9.26593983,42.0225545 C10.6363039,42.0225545 11.9411286,40.8484169 11.9411286,39.4777481 C11.9411286,37.7814717 10.6363039,36.6722423 9.00487042,36.6722423 C5.80752107,36.6722423 2.67540643,39.7391875 2.67540643,43.7843703 C2.67540643,44.9591174 2.9361711,46.0683468 3.45839699,47.0471721 L4.89390873,45.9379427 C5.87273401,46.3946291 6.65572458,47.3734544 6.91679399,48.4826838 L5.48128226,49.5918914 C6.85158105,50.7666385 8.5481622,51.2888644 10.3099998,51.2888644 C13.9640139,51.2888644 16.9005985,48.3522797 16.9005985,45.7420209 C16.9005985,44.2415792 15.8565385,42.9364498 14.290318,42.9364498 C12.8548062,42.9364716 11.6148462,44.0457445 11.6148462,45.5461862 L11.6148462,45.5461862 Z M30.9950165,51.1584385 C30.9950165,52.5940155 32.1694588,53.7681531 33.5398229,53.7681531 C34.5186482,53.7681531 34.9101217,53.3769408 35.6278776,52.7892625 L35.6278776,55.7258254 C34.9101217,56.1175819 34.1923658,56.3128942 33.4093753,56.3128942 C31.8434812,56.3128942 30.53833,55.8562078 29.6898871,54.4861702 C28.7765142,55.8562295 27.4714501,56.3128942 25.905186,56.3128942 C25.1874301,56.3128942 24.4045048,56.1176037 23.686749,55.7258254 L23.686749,52.7892625 C24.3392919,53.4418708 24.8611913,53.7681531 25.7748036,53.7681531 C27.2103154,53.7681531 28.3196101,52.5940155 28.3196101,51.1584385 C28.3196101,49.787835 27.4062371,48.5482232 25.905186,48.5482232 C23.2300625,48.5482232 22.1207896,51.0929644 22.1207896,53.441849 C22.1207896,56.9005725 24.665596,59.8365259 27.9933059,60.4241389 L27.9933059,58.6623883 C28.5154448,58.4009924 29.1028401,58.3360842 29.6247395,58.3360842 C30.212113,58.3360842 30.7991818,58.4009924 31.3213206,58.6623883 L31.3213206,60.4241389 C34.3882876,59.9675177 37.1940981,56.7046507 37.1940981,53.441849 C37.1940981,51.0274902 36.2152511,48.5482232 33.4093753,48.5482232 C31.9738635,48.5482232 30.9950165,49.787835 30.9950165,51.1584385 L30.9950165,51.1584385 Z M47.2430938,39.4777481 C47.2430938,40.7828775 48.6133926,42.0225545 49.983735,42.0225545 C51.2885596,42.0225545 52.5284761,40.8484169 52.5284761,39.5432875 C52.5284761,39.3473657 52.4632414,39.1515093 52.4632414,38.8906793 L54.7469566,40.7174251 C54.3554396,42.9364716 52.398072,44.8935997 50.1140955,44.6328351 C50.2444779,45.0246133 50.309952,45.3508957 50.309952,45.8724468 C50.309952,47.5038803 48.8741138,49.3960785 47.3082197,49.9837567 L45.0242433,48.2219409 C46.4600597,48.0915585 47.6345021,47.1127115 47.6345021,45.546208 C47.6345021,44.0457663 46.3293727,42.9364933 44.8938609,42.9364933 C43.3931145,42.9364933 42.2839069,44.2416227 42.2839069,45.8076039 C42.2839069,47.6998021 44.5675568,51.2889079 48.9396532,51.2889079 C50.7014691,51.2889079 52.398072,50.766682 53.7028966,49.591935 L52.2673849,48.4827273 C52.593689,47.3734979 53.2462102,46.3946727 54.2902702,45.9379862 L55.7257819,47.0472156 C56.2479425,46.0683903 56.5742248,44.9591609 56.5742248,43.7844139 C56.5742248,40.6525387 54.1598661,36.6722858 50.3099303,36.6722858 C48.6786056,36.6722423 47.2430938,37.7814717 47.2430938,39.4777481 L47.2430938,39.4777481 Z" id="Shape" fill="#000000" sketch:type="MSShapeGroup"></path>
            </g>
        </g>
    </g>
</svg>